<svg width="300" height="308" viewBox="0 0 300 308" fill="none" xmlns="http://www.w3.org/2000/svg">
<path d="M0.0351551 5.22754C-0.0932994 3.79499 0.1301 2.5635 0.708145 1.53866C1.28619 0.51661 2.02899 0.00279249 2.93376 0.00279249H30.1773C30.9508 0.00279249 31.6182 0.418873 32.1767 1.23986C32.738 2.06365 33.0005 3.09408 32.9698 4.33115C33.7461 56.0201 34.4554 107.712 35.1647 159.404C35.106 161.671 35.8041 162.791 37.2842 162.755C38.7586 162.718 39.6019 161.559 39.7918 159.289C43.1931 107.634 46.6055 55.9754 49.9732 4.31719C50.0039 3.08291 50.3195 2.05527 50.9199 1.23428C51.5175 0.416081 52.2072 0 52.9807 0H80.0344C80.9335 0 81.6735 0.50544 82.2376 1.50794C82.8045 2.51324 83.0139 3.7168 82.8715 5.12142C77.1972 73.2581 71.0453 141.353 64.5779 209.417C64.3797 212.291 63.2878 213.871 61.3247 214.128C45.4466 216.074 29.5881 216.661 13.6066 216.038C12.0736 215.971 11.2526 214.485 11.0822 211.592C8.18084 142.766 4.75167 73.9591 0.0351551 5.22754Z" fill="#FF8ADD"/>
<path d="M166.261 159.954C166.281 161.048 166.068 162.288 165.596 163.531C165.066 164.924 164.376 166.025 163.661 166.762C155.34 175.1 146.069 182.302 136.144 188.644C135.323 189.155 134.597 189.23 133.969 188.876C133.343 188.524 133.014 187.795 132.997 186.703C132.634 181.224 132.271 175.745 131.914 170.264C131.897 169.172 131.576 168.423 130.947 168.007C130.319 167.594 129.59 167.583 128.761 167.985C125.326 169.649 121.835 171.199 118.295 172.632C117.448 172.975 116.711 173.648 116.08 174.653C115.449 175.659 115.139 176.734 115.147 177.876C114.904 183.888 114.662 189.898 114.416 195.91C114.424 197.052 114.106 198.144 113.466 199.174C112.824 200.207 112.073 200.906 111.207 201.255C101.179 205.181 90.9868 208.269 80.4926 210.682C79.4762 210.906 78.6887 210.573 78.1246 209.688C77.5633 208.806 77.2868 207.655 77.3064 206.242C83.4247 138.915 89.127 71.5519 94.3322 4.14964C94.6031 1.38228 95.6391 0 97.443 0H157.202C157.976 0 158.66 0.346269 159.252 1.01647C159.844 1.68946 160.151 2.52999 160.173 3.54088C163.351 58.7512 164.158 108.136 166.264 159.951L166.261 159.954ZM129.635 51.0607C129.476 49.0445 128.641 48.1397 127.124 48.3408C125.608 48.5418 124.86 49.67 124.882 51.7309C124.108 74.1489 123.31 96.5643 122.48 118.98C122.352 120.342 122.64 121.401 123.332 122.138C124.028 122.875 124.787 123.115 125.611 122.861C127.582 122.247 128.565 121.928 130.526 121.264C131.344 120.987 132.048 120.278 132.645 119.147C133.243 118.016 133.53 116.81 133.511 115.525C132.184 94.0371 130.891 72.5489 129.635 51.0579V51.0607Z" fill="#FF8ADD"/>
<path d="M171.135 3.32585C171.113 2.43784 171.381 1.65595 171.945 0.991333C172.509 0.326721 173.174 0 173.947 0H202.353C203.9 0 204.913 0.659027 205.399 1.96312C210.303 15.8418 215.578 29.5669 221.205 43.1719C221.565 44.1353 222.439 44.3112 223.721 43.9119C224.857 43.5572 225.458 42.9317 225.363 41.9376C224.086 28.7878 222.808 15.6379 221.531 2.48531C221.467 1.8207 221.699 1.23986 222.232 0.742802C222.766 0.245739 223.416 0 224.19 0H251.821C252.595 0 253.296 0.226192 253.927 0.678575C254.558 1.12817 254.904 1.65315 254.974 2.25633C258.727 35.8332 262.478 69.4129 266.228 102.99C266.295 103.593 266.088 104.171 265.6 104.735C265.114 105.299 264.511 105.662 263.785 105.824C253.871 108.136 244.304 111.219 234.871 115.051C233.196 115.751 232.079 115.617 231.537 114.581C225.695 102.504 220.082 90.3314 214.774 78.0082C214.411 77.0531 213.52 77.0001 212.165 77.6898C210.973 78.2958 210.331 79.1168 210.409 80.1947C211.462 94.4252 212.512 108.659 213.564 122.889C213.617 123.607 213.333 124.422 212.713 125.352C212.09 126.282 211.336 127.016 210.451 127.558C199.303 138.164 191.752 142.875 181.791 152.015C180.895 152.852 179.264 153.271 178.574 153.255C177.885 153.238 176.137 152.783 176.112 151.895C174.824 102.342 172.423 52.8255 171.135 3.32865V3.32585Z" fill="#FF8ADD"/>
<path d="M266.536 2.21724C266.477 1.62523 266.715 1.10862 267.251 0.664612C267.787 0.223399 268.44 0 269.214 0H296.843C297.616 0 298.295 0.217814 298.876 0.656235C299.454 1.09186 299.741 1.60289 299.741 2.18652V99.7756C299.741 100.359 299.588 100.865 299.278 101.298C298.968 101.73 298.602 101.945 298.172 101.945C291.772 101.929 285.424 102.434 279.068 103.152C278.44 103.23 277.862 103.082 277.337 102.705C276.812 102.328 276.516 101.845 276.455 101.253C273.148 68.24 269.845 35.2272 266.539 2.21444L266.536 2.21724Z" fill="#FF8ADD"/>
<path d="M9.31982 306.236V228.504C9.31982 228.032 9.54602 227.641 10.0012 227.329C10.4564 227.016 10.9925 226.887 11.618 226.938C24.9801 228.043 36.9627 227.013 50.3499 226.301C61.7432 225.695 73.8319 225.324 84.6304 228.527C91.7206 230.629 99.0118 234.558 99.0676 243.142C99.0788 244.759 99.0229 246.237 98.8861 247.546C98.7493 248.856 98.1489 250.584 97.1073 252.682C96.0657 254.782 94.6443 256.608 92.8487 258.13C90.4919 260.129 87.5486 261.352 84.7701 262.427C80.7601 263.977 76.3312 264.58 72.0335 264.969C70.4223 265.114 69.6097 265.544 69.6487 266.337C69.6906 267.13 70.534 267.459 72.1508 267.359C76.387 267.094 80.7796 266.909 84.9348 267.588C87.6435 268.029 90.6203 268.532 93.0917 269.942C94.9068 270.978 96.3533 272.408 97.4173 274.201C98.4812 275.993 99.0928 277.535 99.2547 278.8C99.4167 280.065 99.5088 281.514 99.5284 283.134C99.6345 291.642 93.5385 297.437 86.8756 301.29C77.6436 306.627 66.4178 307.83 55.6723 308.001H12.5033C11.6543 308.001 10.9088 307.825 10.2721 307.47C9.63538 307.118 9.31982 306.705 9.31982 306.233V306.236ZM59.8387 254.042C59.7717 252.913 59.7354 252.349 59.6684 251.221C59.5818 249.811 58.543 248.66 56.5743 247.758C54.6028 246.856 52.3074 246.471 49.716 246.577C47.2977 246.675 46.0997 246.711 43.7345 246.767C42.8883 246.787 42.1651 246.977 41.5591 247.334C40.9531 247.691 40.6683 248.105 40.699 248.568C40.9057 251.701 41.1151 254.837 41.3217 257.971C41.358 258.512 41.6987 258.934 42.3494 259.236C43 259.537 43.7456 259.68 44.5945 259.666C47.0463 259.621 48.2862 259.59 50.7827 259.509C53.2205 259.431 55.3652 258.853 57.2026 257.781C59.0373 256.711 59.9253 255.452 59.8415 254.042H59.8387ZM43.1843 286.063C43.2206 286.605 43.5641 287.049 44.2231 287.392C44.8794 287.736 45.6306 287.906 46.4795 287.901C48.8531 287.884 50.0427 287.87 52.4331 287.839C54.9938 287.806 57.1747 287.261 58.9759 286.203C60.777 285.147 61.6427 283.902 61.5561 282.491C61.4891 281.363 61.4528 280.799 61.3858 279.671C61.2992 278.261 60.2827 277.077 58.3448 276.122C56.4068 275.167 54.1421 274.726 51.5702 274.784C49.1714 274.837 47.979 274.857 45.6082 274.888C44.7593 274.899 44.0332 275.08 43.4245 275.435C42.8157 275.789 42.5309 276.236 42.5672 276.778C42.771 279.872 42.9777 282.969 43.1815 286.066L43.1843 286.063Z" fill="#FF8ADD"/>
<path d="M110.035 216.65C110.035 216.117 110.395 215.525 111.112 214.866C111.83 214.204 112.668 213.693 113.62 213.33C125.284 208.745 136.237 203.118 146.655 196.137C147.535 195.531 148.297 195.226 148.937 195.246C149.576 195.266 149.886 195.598 149.867 196.251C149.057 223.221 148.244 250.191 147.434 277.158C147.412 277.92 147.711 278.482 148.339 278.853C148.967 279.225 149.774 279.319 150.766 279.127C167.457 275.801 183.698 270.772 200.43 267.594C201.31 267.432 202.067 267.644 202.689 268.239C203.312 268.831 203.602 269.607 203.555 270.557C202.991 281.849 202.43 293.142 201.866 304.435C201.818 305.385 201.458 306.217 200.785 306.926C200.112 307.635 199.352 307.987 198.503 307.987H112.972C112.123 307.987 111.381 307.783 110.747 307.384C110.113 306.985 109.794 306.521 109.794 305.988L110.035 216.65Z" fill="#FF8ADD"/>
<path d="M212.421 222.937C213.882 195.8 215.342 168.662 216.803 141.525C216.856 140.553 217.263 139.495 218.026 138.358C218.788 137.222 219.651 136.381 220.609 135.859C231.134 130.285 241.935 125.728 253.309 122.19C254.166 121.933 254.884 122.117 255.467 122.734C256.051 123.354 256.308 124.2 256.238 125.27C254.334 155.057 252.429 184.842 250.527 214.629C250.505 214.99 250.424 216.23 250.29 218.366C250.153 220.499 250.033 222.367 249.933 223.968C249.829 225.568 249.726 227.746 249.62 230.491C249.514 233.241 249.463 235.676 249.469 237.796C249.472 239.915 249.536 242.258 249.653 244.811C249.771 247.369 249.98 249.569 250.282 251.407C250.583 253.247 251.002 254.95 251.53 256.514C252.06 258.081 252.789 259.284 253.708 260.122C254.63 260.96 255.649 261.353 256.763 261.298C257.874 261.242 258.908 260.745 259.863 259.798C260.815 258.854 261.647 257.553 262.362 255.894C263.074 254.238 263.691 252.445 264.211 250.524C264.73 248.606 265.199 246.321 265.621 243.677C266.042 241.041 266.414 238.617 266.738 236.43C267.062 234.241 267.302 231.742 267.461 228.927C267.62 226.115 267.743 223.889 267.835 222.259C267.927 220.628 268.034 218.72 268.156 216.542C268.279 214.361 268.349 213.096 268.371 212.731C270.078 182.337 271.784 151.941 273.493 121.547C273.554 120.458 273.887 119.461 274.481 118.557C275.076 117.655 275.732 117.144 276.45 117.04C283.616 116.083 290.77 115.424 298.005 115.435C298.483 115.435 298.885 115.854 299.226 116.68C299.566 117.51 299.737 118.473 299.737 119.573V211.723C299.737 216.81 299.737 221.901 299.737 226.989C299.737 231.895 299.538 236.827 299.293 241.705C299.041 246.645 298.723 251.627 298.156 256.556C297.639 261.074 296.827 265.587 295.967 270.035C295.143 274.291 293.979 278.639 292.13 282.554C290.463 286.086 288.43 289.591 286.277 292.741C284.093 295.933 281.499 298.91 278.159 301.138C274.844 303.35 271.136 304.967 267.475 306.084C263.138 307.41 258.45 307.994 253.898 307.994C249.394 307.994 244.836 307.371 240.435 306.139C236.864 305.14 233.278 303.565 230.114 301.507C227.104 299.549 224.56 296.863 222.603 293.878C220.681 290.945 218.841 287.955 217.255 284.872C215.515 281.49 214.616 277.659 213.896 273.948C213.161 270.172 212.552 266.251 212.153 262.364C211.709 258.067 211.662 253.722 211.656 249.41C211.65 245.076 211.676 240.734 211.807 236.4C211.944 231.912 212.184 227.425 212.421 222.943V222.937Z" fill="#FF8ADD"/>
</svg>
